<?xml version="1.0" standalone="no"?>
<!DOCTYPE svg PUBLIC "-//W3C//DTD SVG 20010904//EN"
 "http://www.w3.org/TR/2001/REC-SVG-20010904/DTD/svg10.dtd">
<svg version="1.0" xmlns="http://www.w3.org/2000/svg"
 width="300.000000pt" height="250.000000pt" viewBox="0 0 300.000000 250.000000"
 preserveAspectRatio="xMidYMid meet">
<metadata>
Created by potrace 1.10, written by Peter Selinger 2001-2011
</metadata>
<g transform="translate(0.000000,250.000000) scale(0.100000,-0.100000)"
fill="white" stroke="none">
<path d="M1422 2280 c-104 -27 -166 -64 -251 -148 -41 -40 -75 -71 -76 -70 -1
2 -17 29 -35 61 -33 59 -54 77 -89 77 -11 0 -202 -48 -423 -106 -422 -112
-448 -122 -448 -173 0 -39 60 -254 75 -271 8 -9 85 -48 173 -88 l158 -73 48
-184 c31 -118 55 -190 67 -201 12 -11 49 -19 111 -26 51 -5 97 -10 101 -11 5
-1 -99 -24 -230 -51 -131 -26 -248 -54 -260 -62 -13 -8 -25 -24 -28 -37 -6
-24 28 -196 46 -228 15 -29 54 -33 136 -15 42 9 77 15 78 14 2 -2 22 -95 45
-208 36 -176 45 -208 66 -227 31 -28 35 -28 163 -1 l104 22 96 113 96 113 5
-69 c8 -114 3 -112 259 -111 225 2 298 9 312 31 6 11 11 10 26 -3 19 -17 153
-48 208 -48 42 0 75 38 75 86 0 19 3 34 8 34 4 0 27 -29 51 -65 65 -96 78
-105 178 -126 48 -10 102 -18 119 -19 60 0 67 17 138 367 36 177 66 332 66
345 0 57 -27 68 -294 113 -82 14 -156 30 -165 34 -9 5 -38 12 -64 15 -27 4
-47 9 -45 11 1 2 71 13 153 25 181 26 187 30 210 140 9 41 19 77 23 80 4 4 75
32 157 65 208 81 255 117 308 233 32 72 30 189 -4 263 -35 74 -87 130 -152
163 -71 37 -441 117 -479 104 -18 -7 -43 -36 -81 -99 l-54 -89 -36 59 c-44 70
-134 155 -204 194 -120 65 -299 84 -441 47z m309 -56 c176 -52 306 -188 354
-370 20 -76 20 -252 0 -329 -48 -188 -179 -322 -360 -370 -76 -19 -211 -19
-288 1 -175 45 -294 155 -355 328 -22 62 -26 87 -26 201 0 114 3 139 26 203
60 169 173 280 338 333 72 24 236 25 311 3z m-741 -96 c21 -52 61 -221 53
-229 -4 -4 -66 -23 -138 -42 -93 -25 -129 -39 -127 -48 2 -8 38 -141 79 -297
41 -155 73 -288 70 -296 -6 -14 -241 -80 -261 -73 -7 3 -48 140 -91 306 -52
194 -84 300 -91 297 -55 -21 -257 -67 -264 -60 -4 5 -22 60 -38 121 -22 83
-27 115 -19 120 10 7 785 219 810 222 4 1 12 -9 17 -21z m1462 -49 c213 -46
269 -68 321 -130 140 -163 51 -415 -162 -460 -48 -10 -68 -9 -142 8 l-86 19
-33 -151 c-18 -82 -36 -155 -41 -161 -10 -12 -229 31 -240 47 -3 5 34 193 82
417 100 461 98 452 104 452 3 0 92 -19 197 -41z m-1352 -58 c0 -4 -6 -15 -13
-26 -16 -20 -22 -14 -32 33 l-7 34 26 -17 c14 -10 26 -20 26 -24z m1085 -23
c-18 -95 -39 -178 -45 -178 -4 0 -15 28 -24 63 l-17 64 38 40 c47 50 56 52 48
11z m-1162 -261 c-4 -67 -1 -140 6 -179 34 -197 155 -346 336 -416 95 -36 96
-36 -32 -42 -180 -7 -168 14 -168 -313 l0 -262 -22 -3 c-13 -2 -53 -38 -94
-83 -40 -44 -76 -76 -80 -72 -11 11 -79 337 -79 377 0 31 2 32 62 45 79 16
116 35 123 64 9 36 -23 169 -47 194 -24 26 -45 28 -117 11 -49 -11 -51 -10
-71 14 -11 14 -31 29 -45 32 -41 10 -29 21 45 40 86 23 120 47 120 86 0 16
-16 91 -36 167 -20 76 -52 194 -70 263 -19 76 -29 129 -23 134 7 8 165 53 191
55 3 1 4 -50 1 -112z m-539 -88 c20 -66 30 -119 22 -119 -16 0 -238 111 -233
116 8 8 156 52 179 53 12 1 22 -13 32 -50z m2009 -195 c20 -3 39 -10 42 -14 4
-7 -118 -60 -138 -60 -8 0 1 46 15 73 5 11 16 16 26 13 9 -3 34 -8 55 -12z
m-439 -223 c13 -12 46 -28 73 -35 94 -25 95 -33 7 -47 -64 -10 -84 -18 -108
-41 -25 -26 -33 -28 -71 -22 -36 5 -47 2 -64 -15 -11 -11 -23 -31 -26 -44 -16
-62 -126 -594 -126 -609 0 -10 -4 -18 -8 -18 -5 0 -11 34 -13 75 -6 84 -30
125 -76 125 -20 0 -23 3 -16 18 9 17 11 170 3 207 -3 15 2 21 18 23 13 2 32
15 44 30 18 23 20 38 17 103 -2 58 -8 82 -22 98 -21 24 -25 21 88 56 67 21
154 75 211 131 l40 39 3 -26 c2 -15 14 -36 26 -48z m-384 -256 l0 -95 -125 0
-125 0 0 -35 0 -36 88 7 c71 5 90 4 93 -7 3 -8 5 -50 5 -94 l-1 -80 -92 -3
-93 -3 0 -35 0 -35 128 2 127 1 3 -90 3 -91 -232 -3 c-127 -2 -233 1 -236 5
-3 4 -7 158 -10 342 l-6 334 134 4 c74 1 180 4 237 5 l102 2 0 -95z m343 66
c48 -10 90 -21 94 -24 3 -3 43 -86 89 -184 46 -98 84 -175 84 -172 0 14 60
303 64 306 5 6 179 -28 188 -36 6 -6 -124 -657 -134 -666 -6 -7 -190 34 -203
45 -5 5 -44 83 -85 174 -41 91 -77 165 -80 166 -3 0 -17 -64 -32 -142 -15 -77
-31 -145 -35 -149 -7 -7 -178 23 -189 33 -4 5 120 625 131 656 5 15 1 15 108
-7z m-982 -95 c10 -49 16 -93 13 -97 -2 -4 -49 -16 -104 -25 -62 -12 -100 -23
-100 -31 0 -6 21 -109 46 -228 25 -119 43 -222 41 -229 -6 -16 -194 -53 -205
-40 -5 5 -28 103 -51 219 -23 116 -45 217 -49 226 -6 15 -17 14 -107 -7 -55
-12 -103 -19 -106 -16 -10 11 -43 182 -36 188 9 9 598 133 621 131 16 -2 22
-18 37 -91z m1220 62 c65 -10 70 -13 64 -32 -9 -27 -31 -112 -39 -148 -4 -16
-10 -28 -15 -28 -7 0 -111 202 -111 216 0 7 27 5 101 -8z m-172 -544 c24 -51
21 -66 -7 -41 -10 10 -24 17 -30 17 -12 0 -17 62 -6 73 11 11 21 0 43 -49z"/>
<path d="M1508 2006 l-56 -113 -119 -18 c-65 -10 -124 -22 -130 -27 -23 -19
-14 -27 15 -13 15 7 70 19 122 26 52 7 102 18 110 26 8 7 37 57 65 110 52 102
74 121 101 86 13 -16 13 -15 3 10 -8 17 -20 27 -33 27 -17 0 -33 -23 -78 -114z"/>
<path d="M1537 1967 c-26 -56 -51 -107 -55 -114 -4 -6 -61 -19 -127 -28 -66
-10 -121 -19 -123 -20 -1 -1 38 -41 86 -89 l89 -87 -18 -102 c-10 -56 -21
-112 -24 -125 -5 -20 6 -16 109 38 l114 61 108 -59 c60 -33 110 -59 111 -58 1
1 -8 57 -20 125 l-21 124 91 87 91 86 -126 18 c-70 9 -127 18 -127 19 0 1 -25
52 -55 114 l-55 112 -48 -102z m92 -65 c16 -31 37 -64 47 -74 22 -19 86 -38
129 -38 59 -1 60 -14 7 -64 -66 -63 -81 -95 -71 -149 9 -49 11 -117 3 -117 -3
0 -35 16 -73 35 -37 19 -74 35 -82 35 -8 0 -48 -16 -88 -35 -41 -20 -76 -33
-79 -30 -3 3 0 39 6 81 14 89 11 97 -61 171 -28 29 -48 55 -45 58 3 3 38 12
77 19 85 16 110 36 152 119 16 32 34 55 40 52 5 -4 22 -32 38 -63z"/>
<path d="M1722 1886 c10 -7 60 -19 110 -25 51 -7 106 -19 121 -26 25 -13 28
-12 25 3 -3 14 -26 20 -118 34 -63 9 -124 19 -135 22 -19 5 -19 4 -3 -8z"/>
<path d="M2000 1422 c-34 -63 -116 -142 -183 -175 -203 -99 -441 -64 -594 89
-34 34 -58 52 -52 41 19 -34 93 -103 144 -132 70 -42 166 -65 265 -65 151 0
262 42 348 134 47 49 109 143 100 151 -2 2 -15 -17 -28 -43z"/>
<path d="M880 1906 c-121 -33 -140 -40 -140 -58 0 -7 4 -7 13 0 7 6 66 25 132
42 127 34 131 35 118 42 -4 3 -60 -9 -123 -26z"/>
<path d="M355 1768 c-60 -16 -112 -32 -114 -34 -15 -14 18 -9 114 17 117 31
165 36 165 17 0 -6 2 -9 5 -6 3 3 3 13 -1 22 -8 22 -38 19 -169 -16z"/>
<path d="M785 1223 c-49 -13 -94 -29 -100 -35 -7 -8 -5 -9 5 -6 8 3 57 15 108
28 50 13 92 27 92 32 0 11 -1 10 -105 -19z"/>
<path d="M2432 1908 c-6 -6 -12 -19 -12 -27 0 -11 3 -11 13 3 22 30 101 14
144 -29 37 -37 41 -37 17 1 -30 45 -135 79 -162 52z"/>
<path d="M2455 1857 c-12 -43 -26 -129 -22 -134 3 -2 21 -8 41 -13 79 -18 135
52 88 111 -23 27 -101 54 -107 36z m80 -67 c9 -27 -1 -40 -30 -40 -29 0 -36
10 -28 38 7 29 49 30 58 2z"/>
<path d="M2759 1643 c-34 -52 -108 -95 -172 -101 -29 -2 -90 3 -136 13 -46 9
-87 13 -91 8 -4 -4 -11 -19 -14 -33 -6 -25 -6 -25 5 -2 14 26 28 27 121 6 81
-18 139 -14 196 15 44 22 88 65 108 103 20 40 12 35 -17 -9z"/>
<path d="M2110 1282 c0 -10 169 -46 177 -38 3 3 -8 8 -23 12 -16 3 -45 10 -64
14 -19 4 -47 11 -62 14 -16 4 -28 2 -28 -2z"/>
<path d="M1481 931 c-63 -5 -86 -10 -89 -21 -4 -12 -2 -13 9 -2 9 8 49 12 126
12 69 0 113 4 113 10 0 10 -14 10 -159 1z"/>
<path d="M1465 680 c-60 -4 -70 -8 -73 -25 -3 -16 -1 -17 7 -5 7 11 35 16 93
20 46 3 74 7 63 10 -11 3 -51 3 -90 0z"/>
<path d="M1405 430 c-93 -3 -165 -8 -160 -11 15 -9 395 2 395 12 0 4 -15 7
-32 6 -18 -1 -109 -4 -203 -7z"/>
<path d="M1996 694 c-10 -25 -6 -41 5 -21 17 29 47 20 68 -20 11 -21 20 -34
21 -30 0 4 -9 26 -20 47 -15 30 -27 40 -44 40 -13 0 -27 -7 -30 -16z"/>
<path d="M1813 424 c10 -10 127 -32 127 -24 0 5 -23 13 -50 19 -57 12 -86 14
-77 5z"/>
<path d="M2180 414 c0 -22 46 -78 70 -84 14 -4 48 -10 75 -13 65 -9 32 8 -48
23 -51 10 -59 15 -77 48 -10 20 -19 32 -20 26z"/>
<path d="M899 871 c-83 -19 -99 -27 -99 -43 0 -7 4 -7 13 0 6 5 50 18 97 28
47 9 89 21 95 26 14 12 -20 8 -106 -11z"/>
<path d="M518 791 c-77 -17 -126 -40 -58 -27 157 30 171 31 186 11 16 -22 19
-12 4 16 -13 23 -30 23 -132 0z"/>
<path d="M810 358 c-25 -5 -49 -14 -55 -20 -7 -7 -2 -9 15 -5 14 3 44 9 68 13
23 4 45 11 48 15 6 11 -17 10 -76 -3z"/>
</g>
</svg>
